<svg xmlns="http://www.w3.org/2000/svg" xmlns:xlink="http://www.w3.org/1999/xlink" aria-hidden="true" role="img" class="iconify iconify--logos" width="31.88" height="32" preserveAspectRatio="xMidYMid meet" viewBox="0 0 256 257"><defs><linearGradient id="IconifyId1813088fe1fbc01fb466" x1="-.828%" x2="57.636%" y1="7.652%" y2="78.411%"><stop offset="0%" stop-color="#FF00DC"></stop><stop offset="100%" stop-color="#FF1877"></stop></linearGradient><linearGradient id="IconifyId1813088fe1fbc01fb467" x1="43.376%" x2="50.316%" y1="2.242%" y2="89.03%"><stop offset="0%" stop-color="#FFEA83"></stop><stop offset="8.333%" stop-color="#FFDD35"></stop><stop offset="100%" stop-color="#FFA800"></stop></linearGradient></defs><path fill="url(#IconifyId1813088fe1fbc01fb466)" d="M128.001 0C57.317 0 0 57.307 0 128c0 70.696 57.307 128 128.001 128C198.7 256 256 198.696 256 128.001C256 57.307 198.700 0 128.001 0zm59.303 139.739c.264-1.562.26-7.7-.703-11.236-.347-1.233-.879-2.953-1.817-4.694l-5.475 9.767c3.829 3.789 6.321 9.41 6.993 15.937c1.17-.235 2.215-.557 3.002-1.076zm-9.281-60.514c-3.037 5.2-8.365 8.828-14.275 9.815a13.901 13.901 0 0 1-5.71-.165c-.547 5.51.14 11.234 2.1 15.93a21.688 21.688 0 0 0 11.522 11.256c.767-1.636 1.516-3.504 2.141-5.661c.92-3.257 1.15-7.083.222-10.596zm9.28 60.515c-1.817 3.695-5.202 6.556-9.274 8.013c1.378-4.317 1.779-10.585.703-15.937c-.347-1.614-.879-3.154-1.464-4.694l5.475-9.767c3.829 3.789 6.321 9.41 6.993 15.937c1.171-.234 2.216-.556 3.002-1.075zm-28.568 25.034c-5.823-3.32-10.495-8.666-13.239-14.845c-1.817 3.695-5.202 6.556-9.274 8.013c1.378-4.317 1.78-10.585.703-15.937c-.347-1.614-.879-3.154-1.464-4.694l5.475-9.767c3.829 3.789 6.32 9.41 6.992 15.937c1.171-.234 2.216-.556 3.002-1.075c3.036 5.199 8.364 8.827 14.274 9.815a13.901 13.901 0 0 1 5.71.165c.548-5.51-.139-11.234-2.099-15.93a21.688 21.688 0 0 0-11.523-11.256c-.767 1.636-1.515 3.504-2.14 5.661c-.92 3.257-1.151 7.083-.222 10.596z"></path><path fill="url(#IconifyId1813088fe1fbc01fb467)" d="M212.769 224.992c31.052-8.411 52.306-37.588 52.306-71.992c0-41.361-33.63-75.001-75.001-75.001c-6.479 0-12.748.806-18.771 2.336c4.233-17.642 20.346-30.854 39.478-30.854c22.707 0 41.092 18.385 41.092 41.091c0 6.953-1.729 13.52-4.793 19.268c29.627 8.035 51.431 36.036 51.431 69.16c0 8.033-.998 15.827-2.873 23.348l-83.563-47.948z"></path></svg>
